<svg width="209" height="36" viewBox="0 0 209 36" fill="none" xmlns="http://www.w3.org/2000/svg">
<path d="M30.6001 29.84H26.3201V6.75996L17.2401 29.64H13.7201L4.32008 6.75996V29.84H7.83205e-05V-4.14848e-05H5.76008L15.4401 23.72L24.8401 -4.14848e-05H30.6001V29.84ZM54.8301 20.44H41.3501C41.4301 22.36 41.9501 23.8533 42.9101 24.92C43.8967 26.0666 45.2567 26.64 46.9901 26.64C49.3901 26.64 51.5101 26.12 53.3501 25.08V29.12C51.2167 29.92 49.0567 30.32 46.8701 30.32C43.4301 30.32 40.8701 29.2266 39.1901 27.04C37.7234 25.0933 36.9901 22.3733 36.9901 18.88C36.9901 15.52 37.8034 12.7866 39.4301 10.68C41.0567 8.57329 43.2434 7.51996 45.9901 7.51996C49.0567 7.51996 51.3501 8.61329 52.8701 10.8C54.1767 12.6666 54.8301 15.1333 54.8301 18.2V20.44ZM50.4701 16.64C50.4701 15.1466 50.0834 13.8933 49.3101 12.88C48.5101 11.8133 47.4567 11.28 46.1501 11.28C44.8167 11.28 43.6834 11.8266 42.7501 12.92C41.8167 14.0133 41.3501 15.2533 41.3501 16.64H50.4701ZM89.387 29.68H85.227V15.6C85.227 12.7733 83.9736 11.36 81.467 11.36C80.2403 11.36 79.227 11.8666 78.427 12.88C77.467 14.0533 76.987 15.7066 76.987 17.84V29.68H72.787V15.6C72.787 12.7733 71.5336 11.36 69.027 11.36C67.7736 11.36 66.7736 11.8533 66.027 12.84C65.0936 14.0133 64.627 15.68 64.627 17.84V29.68H60.387V13.56C60.387 12.3333 60.3736 11.2666 60.347 10.36C60.3203 9.45329 60.2803 8.69329 60.227 8.07996H64.387V10.04C65.587 8.41329 67.467 7.59996 70.027 7.59996C71.1203 7.59996 72.2136 7.91996 73.307 8.55996C74.427 9.25329 75.2136 10.12 75.667 11.16C77.1603 8.78663 79.387 7.59996 82.347 7.59996C84.6136 7.59996 86.3736 8.27996 87.627 9.63996C88.8003 10.8933 89.387 12.6133 89.387 14.8V29.68ZM112.955 20.44H99.4751C99.5551 22.36 100.075 23.8533 101.035 24.92C102.022 26.0666 103.382 26.64 105.115 26.64C107.515 26.64 109.635 26.12 111.475 25.08V29.12C109.342 29.92 107.182 30.32 104.995 30.32C101.555 30.32 98.9951 29.2266 97.3151 27.04C95.8484 25.0933 95.1151 22.3733 95.1151 18.88C95.1151 15.52 95.9284 12.7866 97.5551 10.68C99.1817 8.57329 101.368 7.51996 104.115 7.51996C107.182 7.51996 109.475 8.61329 110.995 10.8C112.302 12.6666 112.955 15.1333 112.955 18.2V20.44ZM108.595 16.64C108.595 15.1466 108.208 13.8933 107.435 12.88C106.635 11.8133 105.582 11.28 104.275 11.28C102.942 11.28 101.808 11.8266 100.875 12.92C99.9417 14.0133 99.4751 15.2533 99.4751 16.64H108.595ZM126.592 11.48C123.205 11.48 121.512 13.84 121.512 18.56C121.512 22.9333 123.152 25.12 126.432 25.12C128.192 25.12 129.525 24.5066 130.432 23.28C131.259 22.1333 131.672 20.56 131.672 18.56C131.672 16.0533 131.259 14.2533 130.432 13.16C129.632 12.04 128.352 11.48 126.592 11.48ZM135.712 8.07996V25.2C135.712 32.1066 132.352 35.56 125.632 35.56C123.152 35.56 120.899 35.16 118.872 34.36L119.232 30.28C121.205 31.2666 123.352 31.76 125.672 31.76C129.485 31.76 131.459 30.08 131.592 26.72L131.632 26.52C130.459 28.1733 128.725 29 126.432 29C123.312 29 120.925 27.8533 119.272 25.56C117.885 23.6666 117.192 21.2933 117.192 18.44C117.192 15.0533 117.925 12.4266 119.392 10.56C120.965 8.58663 123.232 7.59996 126.192 7.59996C128.619 7.59996 130.445 8.21329 131.672 9.43996V8.07996H135.712ZM152.81 11.96C152.463 11.9066 152.143 11.8666 151.85 11.84C151.556 11.7866 151.263 11.76 150.97 11.76C149.423 11.76 148.276 12.52 147.53 14.04C146.836 15.3733 146.49 17.0266 146.49 19V29.84H142.21V13.36C142.21 12.3466 142.183 11.4 142.13 10.52C142.103 9.61329 142.063 8.77329 142.01 7.99996H146.33V10.68C147.556 8.57329 149.116 7.51996 151.01 7.51996C151.596 7.51996 152.196 7.59996 152.81 7.75996V11.96ZM168.501 29.88V27.76C167.194 29.4666 165.314 30.32 162.861 30.32C160.194 30.32 158.221 29.5733 156.941 28.08C156.034 26.9866 155.581 25.6533 155.581 24.08C155.581 18.64 159.581 15.92 167.581 15.92H168.181V15.2C168.181 12.5866 166.968 11.28 164.541 11.28C162.354 11.28 160.194 11.8533 158.061 13V9.07996C160.088 8.03996 162.328 7.51996 164.781 7.51996C167.341 7.51996 169.208 8.11996 170.381 9.31996C171.634 10.6266 172.261 12.6533 172.261 15.4V24.72C172.261 27.1733 172.341 28.8933 172.501 29.88H168.501ZM168.181 19.64H167.341C165.261 19.64 163.661 19.8266 162.541 20.2C160.754 20.7866 159.861 21.9466 159.861 23.68C159.861 25.6 160.968 26.56 163.181 26.56C166.514 26.56 168.181 24.5333 168.181 20.48V19.64ZM208.098 29.68H203.938V15.6C203.938 12.7733 202.685 11.36 200.178 11.36C198.951 11.36 197.938 11.8666 197.138 12.88C196.178 14.0533 195.698 15.7066 195.698 17.84V29.68H191.498V15.6C191.498 12.7733 190.245 11.36 187.738 11.36C186.485 11.36 185.485 11.8533 184.738 12.84C183.805 14.0133 183.338 15.68 183.338 17.84V29.68H179.098V13.56C179.098 12.3333 179.085 11.2666 179.058 10.36C179.031 9.45329 178.991 8.69329 178.938 8.07996H183.098V10.04C184.298 8.41329 186.178 7.59996 188.738 7.59996C189.831 7.59996 190.925 7.91996 192.018 8.55996C193.138 9.25329 193.925 10.12 194.378 11.16C195.871 8.78663 198.098 7.59996 201.058 7.59996C203.325 7.59996 205.085 8.27996 206.338 9.63996C207.511 10.8933 208.098 12.6133 208.098 14.8V29.68Z" fill="black"/>
</svg>
